<?xml version="1.0" encoding="UTF-8"?>
<svg width="24px" height="24px" viewBox="0 0 24 24" version="1.1" xmlns="http://www.w3.org/2000/svg" xmlns:xlink="http://www.w3.org/1999/xlink">
    <title>Icon/Navigation/Fill/Family</title>
    <g id="Icons" stroke="none" stroke-width="1" fill="none" fill-rule="evenodd">
        <g id="Icon/Navigation/Fill/Family" fill="currentColor" fill-rule="nonzero">
            <g id="family" transform="translate(0.000000, 1.000000)">
                <circle id="Oval" cx="6.500013" cy="3.4999974" r="3.4999974"></circle>
                <circle id="Oval" cx="17.5000048" cy="3.4999974" r="3.4999974"></circle>
                <path d="M17.5,7.99999332 C15.2859091,8.00248216 13.2257968,9.13337639 12.0350089,10.9999911 C13.6849194,11.0192414 15.0095809,12.3672902 14.9999556,14.017285 C14.9903303,15.6672797 13.6500317,16.9997825 12,16.9997825 C10.3499861,16.9997825 9.00968748,15.6672797 9.00006218,14.017285 C8.99043689,12.3672902 10.3150984,11.0192414 11.9650089,10.9999911 C10.4141857,8.56351638 7.43989542,7.4450244 4.66789947,8.25588824 C1.89590352,9.06675208 -0.00671765124,11.6118375 0,14.4999885 L0,20.9999837 C0,21.552268 0.447732743,21.9999829 1.00001708,21.9999829 L8.00001188,21.9999829 L8.00001188,19.4999848 L4.40001456,16.7999868 C3.95818709,16.4686162 3.8686441,15.8418153 4.20001471,15.3999878 C4.53138531,14.9581603 5.15818619,14.8686174 5.60001367,15.199988 L9.33301089,17.9999859 L14.6670069,17.9999859 L18.4000042,15.199988 C18.8418316,14.8686174 19.4686325,14.9581603 19.8000031,15.3999878 C20.1313737,15.8418153 20.0418307,16.4686162 19.6000033,16.7999868 L16,19.4999848 L16,21.9999829 L23,21.9999829 C23.5522851,21.9999829 24,21.552268 24,20.9999837 L24,14.4999885 C23.9955921,10.9119677 21.0880256,8.00440121 17.5,7.99999332 Z" id="Path"></path>
            </g>
        </g>
    </g>
</svg>
