<?xml version="1.0" encoding="UTF-8"?>
<svg width="24px" height="24px" viewBox="0 0 24 24" version="1.1" xmlns="http://www.w3.org/2000/svg" xmlns:xlink="http://www.w3.org/1999/xlink">
    <title>Icon/Navigation/Outline/Family</title>
    <g id="Icons" stroke="none" strokeWidth="1" fill="none" fill-rule="evenodd" strokeLinecap="square" >
        <g id="Icon/Navigation/Outline/Family" stroke="currentColor" strokeWidth="2">
            <g id="Stroke-2" transform="translate(1.000000, 1.000000)">
                <path d="M22,18.9999957 L22,13.4999957 C22,10.463 19.538,7.99999572 16.5,7.99999572 C15.368,7.999 14.263,8.348 13.337,8.99999572 M8.663,8.99999572 C7.738,8.348 6.632,7.999 5.5,7.99999572 C2.462,7.99999572 0,10.463 0,13.4999957 L0,18.9999957 M18,16 L14,19 L18,16 Z M4,16 L8,19 L4,16 Z M14,22 L14,19 L8,19 L8,22 M11,16 C12.104,16 13,15.104 13,14 C13,12.896 12.104,12 11,12 C9.896,12 9,12.896 9,14 C9,15.104 9.896,16 11,16 Z M16.5,5 C17.881,5 19,3.881 19,2.5 C19,1.12 17.881,0 16.5,0 C15.12,0 14,1.12 14,2.5 C14,3.881 15.12,5 16.5,5 Z M3,2.5 C3,1.12 4.12,0 5.5,0 C6.881,0 8,1.12 8,2.5 C8,3.881 6.881,5 5.5,5 C4.12,5 3,3.881 3,2.5 Z" id="Stroke-1"></path>
            </g>
        </g>
    </g>
</svg>
