<?xml version="1.0" encoding="UTF-8"?>
<svg width="24px" height="24px" viewBox="0 0 24 24" version="1.1" xmlns="http://www.w3.org/2000/svg" xmlns:xlink="http://www.w3.org/1999/xlink">
    <title>Icon/Navigation/Outline/Locations</title>
    <g id="Icons" stroke="none" strokeWidth="1" fill="none" fill-rule="evenodd">
        <g id="Icon/Navigation/Outline/Locations" stroke="currentColor" strokeWidth="2">
            <g id="shop" transform="translate(1.000000, 2.000000)">
                <polyline id="Path" strokeLinecap="square" points="3.00000757 10.9999999 3.00000757 19.9999998 19.0000074 19.9999998 19.0000074 10.9999999"></polyline>
                <path d="M3,0 L0,5 C-0.00310238228,6.38840405 0.949328413,7.59653434 2.30010259,7.91760242 C3.65087677,8.2386705 5.04505569,7.58831033 5.66700755,6.34699995 C6.16976775,7.35973866 7.20284067,8.00025269 8.33350752,8.00025269 C9.46417437,8.00025269 10.4972473,7.35973866 11,6.34699995 C11.5027677,7.35973866 12.5358406,8.00025269 13.6665075,8.00025269 C14.7971743,8.00025269 15.8302473,7.35973866 16.3330075,6.34699995 C16.9549593,7.58831033 18.3491382,8.2386705 19.6999124,7.91760242 C21.0506866,7.59653434 22.0031174,6.38840405 22.000015,5 L19,0 L3,0 Z" id="Path" strokeLinecap="square"></path>
                <polyline id="Path" points="9.00000752 19.9999998 9.00000752 13.9999999 13.0000075 13.9999999 13.0000075 19.9999998"></polyline>
            </g>
        </g>
    </g>
</svg>
