<?xml version="1.0" encoding="UTF-8"?>
<svg width="24px" height="24px" viewBox="0 0 24 24" version="1.1" xmlns="http://www.w3.org/2000/svg" xmlns:xlink="http://www.w3.org/1999/xlink">
    <title>Icon/Navigation/Fill/Locations</title>
    <g id="Icons" stroke="none" strokeWidth="1" fill="none" fill-rule="evenodd">
        <g id="Icon/Navigation/Fill/Locations" fill="currentColor" fill-rule="nonzero">
            <g id="shop" transform="translate(0.000000, 1.000000)">
                <path d="M23.8569851,5.48307418 L20.8569877,0.484829713 C20.6762304,0.184074088 20.3509736,0 19.9999885,0 L4,0 C3.64901763,0 3.32376082,0.184074088 3.1430035,0.484829713 L0.143006164,5.48307418 C0.0494961247,5.63853211 0,5.81649554 0,5.99789336 C-0.00386456085,8.2012249 1.7789028,9.99097434 3.98300275,9.99648893 L3.99100274,9.99648893 C4.97874409,9.99900831 5.93202453,9.633724 6.66500036,8.97184882 C8.1789688,10.3397029 10.4830272,10.3397029 11.9969956,8.97184882 C13.5117166,10.3427171 15.8192699,10.3427171 17.3339909,8.97184882 C18.5066403,10.0293759 20.1927275,10.2963932 21.634937,9.65296825 C23.0771465,9.00954332 24.0043093,7.57665507 24,5.99789336 C24,5.81649554 23.9504951,5.63853211 23.8569851,5.48307418 Z" id="Path"></path>
                <path d="M20.016,10.6480908 C19.0864466,10.6488096 18.1694058,10.4269635 17.337,10 L17.322,10.0072239 C15.9028198,10.7374715 14.2598299,10.8526383 12.758,10.3271414 C12.4978922,10.2368909 12.2439821,10.1286298 11.998,10.003096 L11.987,10.0082559 C10.5682626,10.739009 8.92524996,10.8538311 7.424,10.3271414 C7.16421754,10.2368887 6.91064017,10.128627 6.665,10.003096 C5.83409167,10.4288871 4.91870581,10.6496871 3.991,10.6480908 C3.65877728,10.6448199 3.32735833,10.6137584 3,10.5552116 L3,20.9680083 C3,21.5379616 3.44771525,22 4,22 L10,22 L10,15.8080495 L14,15.8080495 L14,22 L20,22 C20.5522847,22 21,21.5379616 21,20.9680083 L21,10.5510836 C20.6751228,10.6111373 20.3460188,10.6435819 20.016,10.6480908 Z" id="Path"></path>
            </g>
        </g>
    </g>
</svg>
