<?xml version="1.0" encoding="UTF-8"?>
<svg width="24px" height="24px" viewBox="0 0 24 24" version="1.1" xmlns="http://www.w3.org/2000/svg" xmlns:xlink="http://www.w3.org/1999/xlink">
    <title>Icon/Navigation/Fill/Prescriptions</title>
    <g id="Icons" stroke="none" stroke-width="1" fill="none" fill-rule="evenodd">
        <g id="Icon/Navigation/Fill/Prescriptions" fill="currentColor" fill-rule="nonzero">
            <g id="medicine" transform="translate(-0.000000, 0.000000)">
                <path d="M21.1822674,11.3952642 C18.3990191,9.30907059 14.5054226,9.58633917 12.0458825,12.0458793 C9.58634237,14.5054195 9.30907378,18.3990159 11.3952674,21.1822642 L21.1822674,11.3952642 Z" id="Path"></path>
                <path d="M12.8082674,22.5952642 C15.5915158,24.6814579 19.4851122,24.4041893 21.9446524,21.9446492 C24.4041925,19.485109 24.6814611,15.5915126 22.5952674,12.8082642 L12.8082674,22.5952642 Z" id="Path"></path>
                <path d="M7.99526744,16.9952642 C7.98887094,14.6073378 8.93806318,12.3160971 10.6312674,10.6322642 L10.6312674,10.6322642 L6.66726744,6.66726425 L10.1672674,3.16726425 C11.5863244,1.72940147 13.8561369,1.57903516 15.4524664,2.81714025 C17.0487959,4.05524533 17.4678691,6.29109787 16.4282674,8.02326425 C16.6162674,8.01126425 16.8042674,7.99526425 16.9952674,7.99526425 C17.5319038,7.99674021 18.0673459,8.04593395 18.5952674,8.14226425 C19.6057283,5.49857504 18.6313759,2.50827344 16.2574133,0.967356354 C13.8834507,-0.573560735 10.7555151,-0.246016234 8.75226744,1.75326425 L1.75226744,8.75326425 C-0.246355658,10.7567952 -0.573312172,13.884445 0.96774108,16.2580047 C2.50879433,18.6315643 5.49882531,19.6056326 8.14226744,18.5952642 C8.04593715,18.0673427 7.99674341,17.5319006 7.99526744,16.9952642 Z" id="Path"></path>
            </g>
        </g>
    </g>
</svg>
