<?xml version="1.0" encoding="UTF-8"?>
<svg width="24px" height="24px" viewBox="0 0 24 24" version="1.1" xmlns="http://www.w3.org/2000/svg" xmlns:xlink="http://www.w3.org/1999/xlink">
    <title>Icon/Navigation/Outline/Reminders</title>
    <g id="Icons" stroke="none" strokeWidth="1" fill="none" fill-rule="evenodd">
        <g id="bell" transform="translate(2.000000, 1.000000)">
            <path d="M17,10 L17,7 C17,3.13400669 13.8659932,0 10,0 C6.13400679,0 3,3.13400669 3,7 L3,10 C3,13.2999999 0,14.0999999 0,16 C0,17.6999999 3.9,19 10,19 C16.1,19 20,17.6999999 20,16 C20,14.0999999 17,13.2999999 17,10 Z" id="Path" stroke="currentColor" strokeWidth="2" strokeLinecap="square"></path>
            <path d="M10,20.9999999 C8.989,20.9999999 8.039,20.9659999 7.145,20.8999999 C7.53616569,22.1477857 8.69233797,22.9969921 10,22.9969921 C11.307662,22.9969921 12.4638343,22.1477857 12.855,20.8999999 C11.961,20.9659999 11.011,20.9999999 10,20.9999999 Z" id="Path" fill="currentColor" fill-rule="nonzero"></path>
        </g>
    </g>
</svg>
