<?xml version="1.0" encoding="UTF-8"?>
<svg width="16px" height="16px" viewBox="0 0 16 16" version="1.1" xmlns="http://www.w3.org/2000/svg" xmlns:xlink="http://www.w3.org/1999/xlink">
    <title>Icon/Filled/Search</title>
    <g id="Icons" stroke="none" strokeWidth="1" fill="none" fill-rule="evenodd" fill-opacity="0.8">
        <g id="Icon/Filled/Search" fill="currentColor" fill-rule="nonzero">
            <g id="zoom" transform="translate(0.099379, 0.000000)">
                <path d="M12.621118,11.2298137 C13.515528,10.0372671 14.0124224,8.64596273 14.0124224,7.05590062 C14.0124224,3.18012422 10.931677,0 7.05590062,0 C3.18012422,0 0,3.18012422 0,7.05590062 C0,10.931677 3.18012422,14.1118012 7.05590062,14.1118012 C8.64596273,14.1118012 10.136646,13.6149068 11.2298137,12.7204969 L14.2111801,15.7018634 C14.4099379,15.9006211 14.7080745,16 14.9068323,16 C15.1055901,16 15.4037267,15.9006211 15.6024845,15.7018634 C16,15.3043478 16,14.7080745 15.6024845,14.310559 L12.621118,11.2298137 Z M7.05590062,12.0248447 C4.27329193,12.0248447 1.98757764,9.83850932 1.98757764,7.05590062 C1.98757764,4.27329193 4.27329193,1.98757764 7.05590062,1.98757764 C9.83850932,1.98757764 12.1242236,4.27329193 12.1242236,7.05590062 C12.1242236,9.83850932 9.83850932,12.0248447 7.05590062,12.0248447 Z" id="Shape"></path>
            </g>
        </g>
    </g>
</svg>
